<?xml version="1.0" encoding="utf-8"?>
<!-- Generator: Adobe Illustrator 24.2.0, SVG Export Plug-In . SVG Version: 6.00 Build 0)  -->
<svg version="1.1" id="Layer_1" xmlns="http://www.w3.org/2000/svg" xmlns:xlink="http://www.w3.org/1999/xlink" x="0px" y="0px"
	 viewBox="0 0 49 49" enable-background="new 0 0 49 49" xml:space="preserve">
<linearGradient id="SVGID_1_" gradientUnits="userSpaceOnUse" x1="0.9668" y1="26.3071" x2="41.3816" y2="24.8909" gradientTransform="matrix(1 0 0 -1 0 50)">
	<stop  offset="0.1042" style="stop-color:#D2A8FF"/>
	<stop  offset="0.4791" style="stop-color:#F778BA"/>
	<stop  offset="1" style="stop-color:#FF7B72"/>
</linearGradient>
<path fill-rule="evenodd" clip-rule="evenodd" fill="url(#SVGID_1_)" d="M33.5,0.1C33.8,0.3,34,0.6,34,1v13c0,0.6-0.4,1-1,1
	s-1-0.4-1-1V2.7l-13.5,7.4c0,0,0,0-0.1,0c-1.2,0.6-2.4,2.3-2.4,4.3c0,0.6-0.4,1-1,1s-1-0.4-1-1V14c0-0.1,0-0.2,0-0.3
	c0.2-2.4,1.7-4.5,3.5-5.4l15-8.2C32.8,0,33.2,0,33.5,0.1z M33,41c0.6,0,1,0.4,1,1v6c0,0.6-0.4,1-1,1h-6c-0.6,0-1-0.4-1-1v-2.1h-4V48
	c0,0.6-0.4,1-1,1h-6c-0.6,0-1-0.4-1-1v-6c0-0.6,0.4-1,1-1s1,0.4,1,1v5h4v-2.1c0-0.6,0.4-1,1-1h6c0.6,0,1,0.4,1,1V47h4v-5
	C32,41.4,32.4,41,33,41z M6,41c0.6,0,1,0.4,1,1v1c0,0.6,0.4,1,1,1h3c0.6,0,1,0.4,1,1s-0.4,1-1,1H8c-1.7,0-3-1.3-3-3v-1
	C5,41.4,5.4,41,6,41z M42,41c-0.6,0-1,0.4-1,1v1c0,0.6-0.4,1-1,1h-3c-0.6,0-1,0.4-1,1s0.4,1,1,1h3c1.7,0,3-1.3,3-3v-1
	C43,41.4,42.6,41,42,41z M6,14c0.6,0,1-0.4,1-1v-1c0-0.6,0.4-1,1-1h4c0.6,0,1-0.4,1-1c0-0.6-0.4-1-1-1H8c-1.7,0-3,1.3-3,3v1
	C5,13.6,5.4,14,6,14z M42,14c-0.6,0-1-0.4-1-1v-1c0-0.6-0.4-1-1-1h-3c-0.6,0-1-0.4-1-1c0-0.6,0.4-1,1-1h3c1.7,0,3,1.3,3,3v1
	C43,13.6,42.6,14,42,14z M3,16.1c-1.7,0-3,1.3-3,3v17c0,1.7,1.3,3,3,3h15c1.7,0,3-1.3,3-3v-7.4h6V36c0,1.7,1.3,3,3,3h15
	c1.7,0,3-1.3,3-3v-17c0-1.7-1.3-3-3-3H30c-1.7,0-3,1.3-3,3v7.6h-6v-7.6c0-1.7-1.3-3-3-3H3z M2,19.1c0-0.6,0.4-1,1-1h15
	c0.6,0,1,0.4,1,1V23H2V19.1z M2,25v5h17v-5H2z M19,32H2v4c0,0.6,0.4,1,1,1h15c0.6,0,1-0.4,1-1V32z M46,23v-3.9c0-0.6-0.4-1-1-1H30
	c-0.6,0-1,0.4-1,1V23H46z M46,25H29v5h17V25z M46,32H29v4c0,0.6,0.4,1,1,1h15c0.6,0,1-0.4,1-1V32z M7,20.6c0,0.6-0.4,1-1,1
	c-0.6,0-1-0.4-1-1c0-0.6,0.4-1,1-1C6.6,19.6,7,20,7,20.6z M7,27.6c0,0.6-0.4,1-1,1c-0.6,0-1-0.4-1-1c0-0.6,0.4-1,1-1
	C6.6,26.6,7,27,7,27.6z M7,34.6c0,0.6-0.4,1-1,1c-0.6,0-1-0.4-1-1c0-0.6,0.4-1,1-1C6.6,33.6,7,34,7,34.6z M33,21.6c0.6,0,1-0.4,1-1
	c0-0.6-0.4-1-1-1c-0.6,0-1,0.4-1,1C32,21.1,32.4,21.6,33,21.6z M33,28.6c0.6,0,1-0.4,1-1c0-0.6-0.4-1-1-1c-0.6,0-1,0.4-1,1
	C32,28.1,32.4,28.6,33,28.6z M33,35.6c0.6,0,1-0.4,1-1c0-0.6-0.4-1-1-1c-0.6,0-1,0.4-1,1C32,35.1,32.4,35.6,33,35.6z"/>
</svg>
